<?xml version="1.0" encoding="iso-8859-1"?>
<!-- Generator: Adobe Illustrator 19.0.0, SVG Export Plug-In . SVG Version: 6.00 Build 0)  -->
<svg version="1.1" id="Layer_1" xmlns="http://www.w3.org/2000/svg" xmlns:xlink="http://www.w3.org/1999/xlink" x="0px" y="0px"
	 viewBox="0 0 512.001 512.001" style="enable-background:new 0 0 512.001 512.001;" xml:space="preserve">
<path style="fill:#F0D296;" d="M2.419,14.098c-3.225-3.225-3.225-8.454,0-11.679s8.454-3.225,11.679,0l491.855,474.338
	c8.063,8.063,8.063,21.134,0,29.196c-8.063,8.062-21.134,8.063-29.196,0L2.419,14.098z"/>
<path style="fill:#D7A07D;" d="M307.122,285.007l-94.986-76.916c-2.778-2.25-6.436,1.415-4.181,4.189l77.34,95.139l191.462,198.535
	c8.063,8.063,21.134,8.063,29.196,0c8.063-8.063,8.063-21.134,0-29.196L307.122,285.007z"/>
<path style="fill:#FFEBC8;" d="M14.098,2.419c-3.225-3.225-8.455-3.225-11.679,0c-3.224,3.224-3.224,8.454,0,11.679l7.87,8.16
	l11.969-11.969L14.098,2.419z"/>
<polygon style="fill:#AA6455;" points="375.402,400.857 464.594,493.342 493.341,464.595 400.855,375.402 "/>
<path style="fill:#F0D296;" d="M509.582,14.098c3.225-3.225,3.225-8.454,0-11.679c-3.225-3.225-8.454-3.225-11.679,0L6.047,476.757
	c-8.063,8.063-8.063,21.134,0,29.196c8.063,8.062,21.134,8.063,29.196,0L509.582,14.098z"/>
<path style="fill:#D7A07D;" d="M204.879,285.007l94.986-76.916c2.779-2.25,6.436,1.415,4.181,4.189l-77.34,95.139L35.244,505.953
	c-8.063,8.063-21.134,8.063-29.196,0c-8.063-8.063-8.063-21.134,0-29.196L204.879,285.007z"/>
<path style="fill:#FFEBC8;" d="M497.903,2.419c3.225-3.225,8.455-3.225,11.679,0c3.224,3.224,3.224,8.454,0,11.679l-7.87,8.16
	l-11.969-11.969L497.903,2.419z"/>
<polygon style="fill:#AA6455;" points="136.598,400.857 47.407,493.342 18.66,464.595 111.145,375.402 "/>
<g>
</g>
<g>
</g>
<g>
</g>
<g>
</g>
<g>
</g>
<g>
</g>
<g>
</g>
<g>
</g>
<g>
</g>
<g>
</g>
<g>
</g>
<g>
</g>
<g>
</g>
<g>
</g>
<g>
</g>
</svg>
