<?xml version="1.0" encoding="utf-8"?>
<!-- Generator: Adobe Illustrator 12.0.1, SVG Export Plug-In . SVG Version: 6.00 Build 51448)  -->
<!DOCTYPE svg PUBLIC "-//W3C//DTD SVG 1.1//EN" "http://www.w3.org/Graphics/SVG/1.1/DTD/svg11.dtd" [
	<!ENTITY ns_svg "http://www.w3.org/2000/svg">
	<!ENTITY ns_xlink "http://www.w3.org/1999/xlink">
]>
<svg  version="1.1" id="Layer_1" xmlns="&ns_svg;" xmlns:xlink="&ns_xlink;" width="262.188" height="300.631"
	 viewBox="0 0 262.188 300.631" overflow="visible" enable-background="new 0 0 262.188 300.631" xml:space="preserve">
<g>
	<path fill-rule="evenodd" clip-rule="evenodd" fill="#DCDDDE" d="M167.442,5.358c4.921,0.839,10.575,3.024,14.399,5.76
		c10.142,3.699,17.733,9.947,24.48,17.04c1.576,0.024,1.505,1.695,3.12,1.68c1.199,2.081,2.904,3.655,5.279,4.56
		c2.663,3.417,6.134,6.026,9.36,8.88c-0.717,3.283-3.266,4.734-4.8,7.2c-3.544-1.321-6.355-3.512-10.561-4.8
		c-3.273-1.003-6.292-2.899-10.08-3.6c0.46-2.22,2.021-4.018,1.44-6.48c-0.377-1.598-2.367-2.371-2.16-3.84
		C187.667,23.054,177.829,13.932,167.442,5.358z"/>
	<path fill-rule="evenodd" clip-rule="evenodd" fill="#DCDDDE" d="M99.521,59.838c-0.446,1.634-1.591,2.569-2.16,4.08
		c0.543,1.537,1.214,2.946,1.92,4.32c-9.612,6.228-18.79,12.89-26.16,21.36c-4.078,0.158-4.528-3.312-7.68-4.08
		c-3.515-4.085-8.388-6.812-11.76-11.04c-1.58,0.315-1.794-1.137-2.64-1.92c-3.395-3.143-7.17-5.851-10.8-8.88
		c0.036-0.596-0.124-0.996-0.48-1.2c7.896-11.383,16.454-22.106,26.4-31.44C77.508,40.412,88.998,49.642,99.521,59.838z"/>
	<path fill-rule="evenodd" clip-rule="evenodd" d="M196.961,36.798c0.281,0.359,0.299,0.981,0.72,1.2
		c-0.454,0.985-0.896,1.983-1.92,2.4c-0.819,0.18-0.305-0.975-1.199-0.72C194.463,37.82,194.81,36.407,196.961,36.798z
		 M196.242,39.198c-0.037-0.597,0.377-0.743,0.479-1.2C195.688,37.711,194.977,39.241,196.242,39.198z"/>
	<path fill-rule="evenodd" clip-rule="evenodd" fill="#DCDDDE" d="M196.721,37.998c-0.103,0.457-0.517,0.603-0.479,1.2
		C194.977,39.241,195.688,37.711,196.721,37.998z"/>
	<path fill-rule="evenodd" clip-rule="evenodd" fill="#DCDDDE" d="M225.042,43.998c0.24,0,0.48,0,0.72,0
		c13.768,11.833,25.075,26.125,30.48,46.32c3.44,10.508,4.848,22.141,4.56,33.84c-1.765,0.075-2.708,0.972-4.319,1.2
		c-0.637,0.347,0.881,0.536,0.479,1.44c-1.557,4.679-8.043,3.801-10.08,0.48c-0.91-3.257,0.491-5.775,2.641-6.72
		c-0.353-1.126,0.676-2.371,1.92-2.64c-0.956-8.787-1.56-15.977-3.841-23.76c-5.214-17.798-15.07-32.028-27.6-42.72
		C221.517,48.793,223.902,47.018,225.042,43.998z M252.162,125.598c0,0.8,0,1.6,0,2.4
		C256.734,129.723,255.67,122.703,252.162,125.598z"/>
	<path fill-rule="evenodd" clip-rule="evenodd" d="M103.842,62.238c1.483,2.583-2.041,3.84-3.12,1.92
		C100.882,62.747,102.19,61.377,103.842,62.238z M101.922,63.198c0,0.24,0,0.48,0,0.72c0.427,0.448,0.61-0.195,1.44,0
		C103.482,62.634,102.753,63.111,101.922,63.198z"/>
	<path fill-rule="evenodd" clip-rule="evenodd" fill="#DCDDDE" d="M103.362,63.918c-0.83-0.195-1.013,0.448-1.44,0
		c0-0.24,0-0.48,0-0.72C102.753,63.111,103.482,62.634,103.362,63.918z"/>
	<path fill-rule="evenodd" clip-rule="evenodd" fill="#DCDDDE" d="M70.962,90.558c-2.915,5.565-7.936,9.025-10.56,14.88
		c-2.178,0.942-2.269,3.972-4.08,5.28c-0.894,2.946-2.74,4.939-4.32,7.2c-1.147,3.413-2.763,6.358-4.56,9.12
		c-0.987,5.013-3.986,8.014-4.8,13.2c-3.108,6.332-4.254,14.626-6.48,21.84c-0.537,5.046-1.201,9.072-1.68,14.64
		c-0.166,1.927-0.805,2.287,0,3.601c0.271,0.44,0.901,0.27,1.2,0.479c4.799,3.387-0.775,11.224-5.76,7.2
		c0.045-0.915,1.339-0.581,1.44-1.44c-1.732-0.607-3.437,0.881-5.76,0.48c-8.617-6.743-16.274-14.445-24.48-21.6
		c0.315-10.757,1.525-19.789,3.36-28.8c0.411-2.019,1.517-3.874,1.92-5.76c0.788-3.685,1.018-6.454,2.4-10.08
		c0.15-0.393,0.828-0.765,0.96-1.2c0.143-0.47-0.177-1.194,0-1.68c0.453-1.243,1.425-2.294,1.92-3.6
		c0.855-2.253,1.057-4.892,1.92-6.96c0.877-2.101,2.574-4.378,3.6-6.48c0.296-0.605,0.003-1.28,0.24-1.92
		c1.1-2.968,3.657-5.436,4.8-7.92c0.826-1.795,1.104-3.352,2.16-5.28c0.433-0.791,1.448-1.17,1.92-1.92
		c0.434-0.69,0.287-1.67,0.72-2.4c0.376-0.633,1.363-1.064,1.68-1.68c0.359-0.698,0.114-1.545,0.48-2.16
		c0.219-0.367,0.927-0.379,1.2-0.72c0.768-0.957,1.003-2.626,1.68-3.6c0.249-0.357,0.962-0.377,1.2-0.72
		c0.427-0.613,0.351-1.497,0.72-2.16c1.182-2.125,3.47-4.048,4.56-6.24c0.757-0.118,0.847,0.433,1.68,0.24
		c-0.077,0.556,0.039,0.921,0.24,1.2c5.97,3.23,9.391,9.009,15.36,12.24c0.503,1.416,2.294,1.545,2.64,3.12
		C62.824,83.976,66.557,87.603,70.962,90.558z M33.042,184.638c-0.296,0.752-0.638,1.601-0.24,2.4c1.71,0.741,3.062-0.497,3.36-1.92
		C35.386,184.354,34.322,184.373,33.042,184.638z"/>
	<path fill-rule="evenodd" clip-rule="evenodd" fill="#DCDDDE" d="M229.841,100.158c2.334,1.756,5.524,3.903,6.48,6.24
		C234.452,104.975,230.659,103.431,229.841,100.158z"/>
	<path fill-rule="evenodd" clip-rule="evenodd" fill="#DCDDDE" d="M237.042,106.638c2.121,0.919,3.005,3.075,5.28,3.84
		c-0.409,1.185,0.166,2.032,0,3.6c-1.906,1.214-3.367,2.874-3.36,6c-1.86-1.18-2.971-3.109-5.04-4.08
		C231.82,111.469,236.25,109.822,237.042,106.638z"/>
	<path fill-rule="evenodd" clip-rule="evenodd" fill="#DCDDDE" d="M225.042,110.478c1.402,0.616,1.492,2.356,3.6,1.68
		c1.337,1.543,3.062,2.699,4.801,3.84c0.537,4.695,4.07,7.565,8.399,7.68c1.486,1.714,3.282,3.118,5.04,4.56
		c0.216,0.703,0.216,0.737,0,1.44c1.681,0.71,2.287,2.613,4.08,2.88c3.944,0.587,7.534-3.378,8.16-6.96
		c0.733,0.173,0.875-0.246,1.439-0.24c-0.1,4.944-1.499,10.633-3.359,15.36c-3.02-2.181-6.801-3.599-9.12-6.48
		c0.121-0.599,0.639-0.802,0.72-1.44c-1.65-2.429-3.987-4.172-6-6.24c-0.966,0.234-1.219,1.181-1.92,1.68
		c-2.498-1.502-4.146-3.854-6.96-5.04c-0.104-1.975-1.952-2.208-2.64-3.6c0.048-0.751,0.618-0.981,0.96-1.44
		c-1.076-3.084-4.462-3.859-6.24-6.24c-1.291-0.171-1.326,0.914-1.68,1.68C223.761,112.708,224.589,111.153,225.042,110.478z"/>
	<path fill-rule="evenodd" clip-rule="evenodd" fill="#DCDDDE" d="M243.282,111.918c1.658,0.342,1.52,2.48,3.6,2.4
		c0.191,1.889,2.604,1.556,2.641,3.6C247.042,116.318,244.146,115.134,243.282,111.918z"/>
	<path fill-rule="evenodd" clip-rule="evenodd" fill="#DCDDDE" d="M225.522,113.118c0.906,0.693,1.722,1.478,2.88,1.92
		c0.142,1.778,2.715,1.125,2.64,3.12c-2.391-0.729-3.815-2.424-5.76-3.6C225.25,113.966,225.246,113.402,225.522,113.118z"/>
	<path fill-rule="evenodd" clip-rule="evenodd" fill="#DCDDDE" d="M244.001,114.798c1.321,1.719,2.987,3.092,4.8,4.32
		c-1.621,1.659-3.221,3.339-3.359,6.48c-2.26-2.405-6.536-3.595-5.04-8.4C242,116.796,241.762,114.559,244.001,114.798z"/>
	<path fill-rule="evenodd" clip-rule="evenodd" fill="#DCDDDE" d="M221.921,118.158c0.319,0.241,0.894,0.227,0.96,0.72
		c-4.108,5.252-7.743,10.978-12.24,15.84c0,0.64,0,1.28,0,1.92c-2.959,0.792-4.203-0.403-6.72,0.24
		c0.796-1.205,2.418-1.582,3.84-2.16c2.619-2.021,4.774-4.506,7.2-6.72C216.919,124.356,219.849,121.686,221.921,118.158z"/>
	<path fill-rule="evenodd" clip-rule="evenodd" fill="#DCDDDE" d="M235.841,119.118c1.817,0.103,1.754,2.086,3.36,2.4
		C238.598,122.069,235.727,120.871,235.841,119.118z"/>
	<path fill-rule="evenodd" clip-rule="evenodd" fill="#DCDDDE" d="M219.282,120.078c0.014,1.054-0.93,1.15-1.2,1.92
		C217.54,121.363,218.585,120.273,219.282,120.078z"/>
	<path fill-rule="evenodd" clip-rule="evenodd" fill="#DCDDDE" d="M217.122,121.998c0.902,0.878-1.035,2.924-2.16,3.36
		C215.115,123.671,217.008,123.725,217.122,121.998z"/>
	<path fill-rule="evenodd" clip-rule="evenodd" d="M252.162,127.998c0-0.8,0-1.6,0-2.4
		C255.67,122.703,256.734,129.723,252.162,127.998z M253.841,127.278c0.342-0.31,0.786-1.347,0-1.44
		C253.435,125.837,252.87,127.399,253.841,127.278z"/>
	<path fill-rule="evenodd" clip-rule="evenodd" fill="#DCDDDE" d="M253.841,125.838c0.786,0.093,0.342,1.131,0,1.44
		C252.87,127.399,253.435,125.837,253.841,125.838z"/>
	<path fill-rule="evenodd" clip-rule="evenodd" fill="#DCDDDE" d="M242.561,127.758c1.454,1.826,3.898,2.662,4.801,5.04
		c-1.902-1.138-3.948-2.132-5.28-3.84C242.044,128.361,242.458,128.215,242.561,127.758z"/>
	<path fill-rule="evenodd" clip-rule="evenodd" fill="#DCDDDE" d="M1.122,167.358c4.403,3.597,8.941,7.06,12.48,11.52
		c2.679,1.002,3.777,3.584,6.48,4.561c0.685,1.955,3.046,2.234,3.84,4.079c2.273,0.838,2.822,0.52,5.28,0.24
		c-0.185,3.494,4.695,4.114,6.96,2.4c0.351,0.91,1.289,1.852,1.2,2.88c-0.074,0.856-0.508,0.502-1.2,1.44
		c-2.132,2.89-4.072,6.726-7.44,8.399c-8.099-6.941-15.366-14.714-24.24-20.88C2.493,177.815,2.323,172.305,1.122,167.358z"/>
	<path fill-rule="evenodd" clip-rule="evenodd" d="M114.402,253.998c-3.908-3.213-7.723-6.518-12-9.36c0-0.239,0-0.479,0-0.72
		c-3.186-1.454-4.959-4.321-8.16-5.76c-1.274-1.846-3.132-3.108-5.28-4.08c-3.377-4.464-9.011-6.669-12.24-11.28c-0.4,0-0.8,0-1.2,0
		c-0.59-1.09-1.268-2.092-2.88-2.16c-1.975-2.504-5-3.96-6.96-6.479c-1.199-0.241-2.081-0.799-2.4-1.92
		c-4.696-3.704-9.494-7.306-13.68-11.521c-4.421-2.298-6.964-6.476-11.04-9.12c-0.055-0.425,0.242-1.201-0.48-0.96
		c-0.6-4.174,1.978-6.071,4.32-7.68c1.567-1.076,2.914-3.431,3.84-4.08c0.552-0.387,1.504-0.355,2.16-0.72
		c1.658-0.92,1.728-1.543,3.6-2.16c1.406-0.464,2.104-1.887,3.12-2.4c0.4,0,0.8,0,1.2,0c4.441-3.649,11.371-5.912,17.52-4.08
		c5.172,1.542,10.257,5.85,14.4,10.32c3.601,3.886,6.317,7.932,9.12,11.76c0.121,1.799,1.247,2.593,2.16,3.601
		c-0.056,2.775,2.336,3.104,2.4,5.76c4.32,7.671,7.235,16.423,9.12,25.68C112.771,235.129,115.273,244.596,114.402,253.998z"/>
	<path fill-rule="evenodd" clip-rule="evenodd" fill="#5F6062" d="M159.522,172.638c0.204-0.044,0.226,0.094,0.239,0.24
		c1.723,3.462-0.11,6.701-0.96,9.84c-0.439,1.625-0.401,3.308-0.96,4.8c-0.664,1.779-1.515,5.012-1.92,7.921
		c-0.519,3.724-1.401,7.672-1.68,11.279c-0.653,8.481-1.334,17.827,0,25.44c-1.09,2.43-2.182,4.858-3.12,7.439
		c-0.833-0.286-1.114-1.691-1.2-2.16c-0.484-2.643-0.54-5.757-0.72-8.399c-0.547-8.017,0.108-16.658,0.96-23.76
		c0.713-5.943,2.204-12.004,4.08-17.521c0-0.72,0-1.439,0-2.16C156.312,181.588,157.399,176.596,159.522,172.638z"/>
	<path fill-rule="evenodd" clip-rule="evenodd" fill="#5F6062" d="M160.482,181.758c0.204-0.044,0.226,0.094,0.239,0.24
		c0.539,17.975-1.377,33.358-5.76,47.04C153.89,211.273,156.178,195.689,160.482,181.758z"/>
	<path fill-rule="evenodd" clip-rule="evenodd" d="M36.162,185.118c-0.298,1.423-1.649,2.661-3.36,1.92
		c-0.398-0.8-0.057-1.648,0.24-2.4C34.322,184.373,35.386,184.354,36.162,185.118z M34.242,186.318
		c0.071-0.489,0.649-0.471,0.72-0.96c-0.32,0-0.64,0-0.96,0C34.042,185.717,33.916,186.244,34.242,186.318z"/>
	<path fill-rule="evenodd" clip-rule="evenodd" fill="#DCDDDE" d="M34.002,185.358c0.32,0,0.64,0,0.96,0
		c-0.071,0.489-0.649,0.471-0.72,0.96C33.916,186.244,34.042,185.717,34.002,185.358z"/>
	<path fill-rule="evenodd" clip-rule="evenodd" d="M223.601,227.598c0.279-0.039,0.428,0.054,0.48,0.24
		c-5.619,16.561-13.428,32.74-29.04,40.08c-0.36-1.644,2.641-1.997,2.64-4.08c0.788-0.092,1.059-0.702,1.681-0.96
		c-0.109-1.376,0.258-1.906,0-2.88c-0.384-0.816-1.757-0.644-2.16-1.44c-5.288-0.648-7.653,1.627-10.8,3.12
		c-1.502,3.938-5.333,5.547-7.681,8.641c-0.56,0-1.119,0-1.68,0c6.901-7.819,11.326-18.114,14.4-29.761
		c1.339-0.059,1.237,1.323,1.439,2.4c0.875,1.524,1.976,2.824,2.641,4.56c1.335-0.215,1.631,0.609,2.399,0.96
		c4.309,0.856,8.096-1.11,10.32-3.6c0.915-1.024,1.752-2.425,2.88-3.6c1.134-1.182,2.791-2.011,3.84-3.12
		c0.894-0.945,1.128-2.147,2.641-2.641c0-0.319,0-0.64,0-0.96C220.223,232.859,222.112,230.429,223.601,227.598z"/>
	<path fill-rule="evenodd" clip-rule="evenodd" fill="#DCDDDE" d="M192.881,234.078c1.072,0.158,1.552,0.374,2.16,0.479
		c-1.023,1.377-2.189,2.61-2.64,4.561C191.588,238.243,193.462,236.28,192.881,234.078z"/>
	<path fill-rule="evenodd" clip-rule="evenodd" fill="#DCDDDE" d="M194.801,259.518c1.018,2.238-4.166,3.113-6.72,2.641
		C189.486,259.954,194.163,262.146,194.801,259.518z"/>
	<path fill-rule="evenodd" clip-rule="evenodd" fill="#DCDDDE" d="M197.202,260.238c0.295,0.104,0.493,0.307,0.479,0.72
		c-3.512,4.508-6.831,8.76-15.84,8.16c1.318-2.327,4.418-1.948,7.44-2.16C192.704,265.5,194.816,262.732,197.202,260.238z"/>
	<path fill-rule="evenodd" clip-rule="evenodd" fill="#DCDDDE" d="M191.921,263.118c0.03-0.53,1.019-0.103,1.44-0.24
		C193.357,263.536,192.229,263.448,191.921,263.118z"/>
	<path fill-rule="evenodd" clip-rule="evenodd" fill="#DCDDDE" d="M191.202,263.838c-0.527,2.014-4.173,1.982-6,1.92
		C186.479,264.396,189.035,264.312,191.202,263.838z"/>
	<path fill-rule="evenodd" clip-rule="evenodd" fill="#DCDDDE" d="M113.202,285.438c-3.633,3.008-6.57,6.711-13.44,6.48
		c7.415-3.865,11.93-10.63,13.92-19.92c2.397-0.165,4.448-1.949,6-2.16c-1.698,5.182-2.917,10.844-6.48,14.16
		C113.202,284.478,113.202,284.958,113.202,285.438z"/>
	<path fill-rule="evenodd" clip-rule="evenodd" fill="#DCDDDE" d="M104.082,283.998c-1.812,3.707-5.428,6.891-9.12,7.92
		c-0.139-0.71,1.34-1.633,1.68-2.64C100.128,288.524,100.188,284.345,104.082,283.998z"/>
	<path fill-rule="evenodd" clip-rule="evenodd" fill="#DCDDDE" d="M212.322,48.318c-0.233-0.007-0.187-0.294-0.24-0.48
		c1.984,1.375,4.195,2.524,6.479,3.6c9.081,8.839,18.26,17.581,23.04,30.72c5.18,9.162,7.389,22.224,8.4,33.36
		c-0.492,0.889-1.57-1.569-2.88-1.44c-3.888-5.152-10.021-8.058-13.92-13.2c-1.996-0.644-2.541-2.739-4.561-3.36
		C227.504,78.084,221.331,61.097,212.322,48.318z"/>
	<path fill-rule="evenodd" clip-rule="evenodd" fill="#DCDDDE" d="M235.362,107.598c-0.857,2.024-3.661,3.377-2.88,6.24
		c-1.789-0.373-3.364-3.034-5.521-3.84c-0.076-1.333-0.836-3.317,0.48-4.56c0.109-0.104,0.631,0.119,0.72,0
		c0.821-1.104,0.498-2.385,2.399-2.16C232.529,103.511,233.333,106.838,235.362,107.598z"/>
	<path fill-rule="evenodd" clip-rule="evenodd" fill="#DCDDDE" d="M214.001,127.038c-3.025,4.344-7.44,8.547-13.439,9.12
		c0.791-1.173,2.084-0.825,3.119-1.2C208.104,133.355,210.875,129.908,214.001,127.038z"/>
	<path fill-rule="evenodd" clip-rule="evenodd" fill="#DCDDDE" d="M227.442,143.358c-0.488,0.988,1.349,1.458,1.68,2.4
		c-3.731-0.497-8.589-0.622-12.24,0c-2.434-3.167-5.969-5.231-8.88-7.92c9.021-2.12,20.311,1.194,25.44,7.2
		c0.235,2.084,1.487,3.152,2.399,4.56c2.039,6.503,2.844,14.484,1.2,22.56c-0.317,1.561-1.559,3.053-1.2,4.8
		c-0.269,0.852-1.033,1.207-0.72,2.64c-1.979,3.18-2.493,8.517-5.28,11.521c-2.092,5.028-4.203,10.036-7.68,13.68
		c-0.511,2.689-2.828,3.572-3.36,6.24c-0.918,0.041-1.159,0.761-1.199,1.68c-7.188,7.933-13.292,16.949-21.841,23.521
		c-0.423,1.416-2.006,1.673-2.159,3.359c-0.916-1.338,1.736-2.988,2.159-4.56c5.892-3.949,9.373-10.308,14.88-14.64
		c1.22-3.101,3.559-5.082,5.761-7.2c3.014-6.666,8.397-10.962,10.56-18.48C235.383,182.611,243.322,152.515,227.442,143.358z"/>
	<path fill-rule="evenodd" clip-rule="evenodd" fill="#DCDDDE" d="M235.841,147.438c0.999,1.001,2.522,1.478,3.601,2.4
		c0.557,0.554-0.444,0.774-0.24,1.68c1.513,9.421,0.216,21.298-3.36,29.28c0,0.48,0,0.96,0,1.44c-0.84,2.04-2.088,3.672-2.399,6.24
		c-0.193,0.127-0.39,0.25-0.721,0.239c-3.131,9.429-8.959,16.161-13.439,24.24c-0.425,0.216-0.701,0.579-1.2,0.72
		c0.024,0.745-0.755,0.686-0.479,1.681c-2.77,1.79-3.71,5.41-6.721,6.96c-4.056,7.225-11.04,11.52-16.08,17.76
		c-0.124-2.687,3.643-3.557,4.561-6c2.74-1.02,3.673-3.847,6-5.28c3.088-3.552,5.662-7.617,9.359-10.56
		c2.203-4.837,6.363-7.718,8.16-12.96c0.882-0.079,0.849-1.072,1.68-1.2c3.41-7.453,8.156-14.14,10.801-23.28
		C238.26,170.78,240.989,158.239,235.841,147.438z"/>
	<path fill-rule="evenodd" clip-rule="evenodd" fill="#DCDDDE" d="M104.082,188.718c0,0.721,0,1.44,0,2.16
		c2.598,3.721,4.611,8.163,6.72,12.48c0.996,2.037,1.806,4.307,2.4,6.96c0.977,4.363,3.383,8.584,4.32,13.199
		c0.225,1.106,0.049,2.249,0.24,3.36c0.551,3.195,1.973,6.291,2.4,9.6c0.209,1.618-0.146,3.332,0,4.801
		c0.633,6.381,1.921,11.844,0.72,17.76c-2.034-1.006-3.076-3.005-5.04-4.08c0.049-0.689-0.061-1.219-0.48-1.44
		c0.978-11.012-2.211-22.222-4.32-32.64c-2.353-5.512-3.562-12.534-6.48-16.8c-1.758-5.682-5.184-9.696-7.44-14.88
		c-8.008-9.475-16.377-24.697-34.8-20.4c-1.107,0.893-2.472,1.528-3.84,2.16c0.812-2.789,4.675-4.604,7.44-6.24
		c6.155-1.896,11.952-0.052,17.28,1.92c3.332,2.909,7.268,5.213,9.84,8.88c0.5,0.301,1.012,0.588,1.44,0.961
		c2.408,4.231,6.032,7.247,8.16,11.76C103.323,188.197,103.11,189.05,104.082,188.718z"/>
	<path fill-rule="evenodd" clip-rule="evenodd" d="M106.722,283.038c-3.458-1.936-7.333,2.11-9.6,4.56
		c-1.279,1.383-2.305,2.36-3.6,4.08c-1.875,2.49-3.531,4.045-6.24,5.76c-6.897,2.584-14.648,2.72-21.84,0
		c-0.986-0.372-4.696-2.301-5.76-3.119c-0.28-0.216-0.211-0.785-0.48-0.961c-0.536-0.35-1.396-0.094-1.92-0.479
		c-0.284-0.209-0.247-0.988-0.48-1.2c-0.402-0.365-1.239-0.376-1.68-0.72c-3.011-2.352-5.362-5.855-7.68-8.64
		c-2.238-2.689-3.922-5.444-6-7.681c0.071-2.791-2.359-3.08-2.4-5.76c-2.348-1.812-2.297-6.022-4.56-7.92
		c-0.117-5.06-3.148-7.19-2.88-12c-2.137-4.066-1.837-8.659-2.4-13.2c-0.262-2.113-1.016-4.116-0.96-6.24
		c0.006-0.234,0.498-0.684,0.48-0.96c-0.15-2.354-0.604-4.777-0.48-7.199c0.245-4.756,1.122-10.842,2.16-15.36
		c1.521,0.96,2.629,2.562,4.08,3.6c1.715,1.228,3.321,2.825,5.04,4.32c2.776,2.415,6.3,4.134,8.4,7.2c0.32,0,0.64,0,0.96,0
		c4.884,4.163,9.438,9.044,14.64,12.96c0.361,0.272,1.059,0.178,1.44,0.479c1.496,1.187,2.585,2.886,4.08,4.08
		c2.01,1.606,4.751,2.391,6,4.8c2.071,0.89,3.565,2.355,4.8,4.08c0.978-0.178,0.826,0.774,1.92,0.48
		c8.149,7.451,16.787,14.413,26.16,20.64c0.078,0.882,1.071,0.849,1.2,1.681c1.643,0.037,2.091,1.269,3.36,1.68
		c-1.254,5.786-3.306,10.773-6.96,14.16C105.82,285.016,107.007,284.763,106.722,283.038z"/>
	<path fill-rule="evenodd" clip-rule="evenodd" fill="#DCDDDE" d="M198.162,261.918c-0.088,1.353-1.596,1.284-1.68,2.64
		C195.546,263.899,197.703,262.725,198.162,261.918z"/>
	<path fill-rule="evenodd" clip-rule="evenodd" fill="#DCDDDE" d="M197.202,32.718c0.341,0.727-0.106,1.286-0.24,2.16
		c0.468,0.763,1.132-0.063,1.68,0.72c2.063,5.906-7.34,8.011-7.439,2.64c-22.795-2.305-40.074,3.994-56.64,9.12
		c-0.346,0.054-0.083,0.716-0.48,0.72c-9.541,2.379-16.414,7.426-24.72,11.04c-0.13,1.012-1.411,0.838-2.16,1.68
		c-1.726,1.938-2.106,6.583-6.48,5.76c-2.542-0.479-2.858-5.101,0.72-5.52c-1.079-2.14-2.862-4.064-5.28-6.24
		c-1.69-1.521-3.625-3.504-5.04-4.56c-0.381-0.285-1.109-0.196-1.44-0.48c-1.143-0.981-1.518-2.722-3.6-2.88
		c-2.135-2.345-4.533-4.427-7.2-6.24c-3.314-4.126-8.297-6.583-11.52-10.8c0.895-0.785,2.043-1.317,2.64-2.4
		c3.347-1.294,5.109-4.171,8.16-5.76c0.444-0.036,0.147-0.812,0.48-0.96c0.565,0.005,0.707-0.414,1.44-0.24
		c2.179-2.621,6.22-3.38,8.4-6c1.19,0.31,1.179-0.581,2.16-0.48c1.352-0.968,2.422-2.218,4.56-2.4
		c6.944-3.529,15.221-6.757,23.52-8.16c0.446-0.194,0.97-0.311,1.2-0.72c1.88,0.121,3.478-0.042,4.56-0.72
		c8.893-0.69,17.325-1.696,26.16-0.48c0.567,0.078,0.886,0.588,1.44,0.72c1.123,0.266,2.591-0.16,3.84,0
		c3.05,0.389,4.919,1.689,8.641,1.68C175.227,13.733,186.527,22.913,197.202,32.718z M194.562,39.678
		c0.895-0.255,0.38,0.9,1.199,0.72c1.023-0.417,1.466-1.415,1.92-2.4c-0.421-0.218-0.438-0.841-0.72-1.2
		C194.81,36.407,194.463,37.82,194.562,39.678z M100.722,64.158c1.08,1.92,4.603,0.664,3.12-1.92
		C102.19,61.377,100.882,62.747,100.722,64.158z"/>
	<path fill-rule="evenodd" clip-rule="evenodd" d="M134.802,268.878c-3.559,6.682-7.898,12.582-15.6,15.12
		c-2.89,2.87-7.978,3.542-10.32,6.96c-3.563,0.533-6.912,3.516-11.04,1.92c-5.129,1.534-9.329,5.863-14.16,6.96
		c-4.442,1.009-9.952,1.017-13.68,0.24c-2.904-0.605-6.179-2.682-8.88-4.08c-1.566-0.812-3.544-1.658-5.04-2.88
		c-1.819-1.486-3.229-3.553-5.28-4.32c0.129-0.93-0.612-0.988-0.72-1.68c-2.843-2.518-4.703-6.018-7.44-8.641
		c-0.119-1.081-0.482-1.918-1.44-2.159c-2.095-4.306-4.088-8.713-6.72-12.48c-2.535-8.604-5.759-18.665-6.96-28.8
		c-0.916-7.723,0.014-15.652,0.24-22.32c0.085-2.509,1.591-4.875,1.68-7.439c-1.851-2.149-4.27-3.73-6.72-5.28
		c0.206-0.766-0.377-0.742-0.48-1.2c-3.425-1.774-4.966-5.434-8.64-6.96c-3.062-4.697-9.045-6.475-11.28-12
		c-1.793-8.144-2.984-16.05-1.92-24.24c0.465-3.583,1.05-7.48,1.92-10.8c0.57-5.988,1.952-11.662,3.36-17.04
		c0.855-3.263,2.787-5.806,2.4-8.88c0.24,0,0.48,0,0.72,0c1.962-5.794,3.314-10.744,6.24-15.6c-0.032-0.592-0.037-1.157,0.24-1.44
		c3.67-7.129,6.875-14.725,11.52-20.88c1.86-5.271,6.458-9.636,8.88-15.12c1.283-0.638,1.479-2.361,3.12-2.64c0-0.56,0-1.12,0-1.68
		c2.926-3.634,5.91-7.209,8.16-11.52c4.256-3.184,6.53-8.35,10.8-11.52c0.139-0.661,0.598-1.002,0.72-1.68
		c0.599-0.121,0.801-0.639,1.44-0.72c0.121-0.599,0.638-0.801,0.72-1.44c4.603-4.038,9.262-8.018,13.92-12
		c2.25-1.271,4.438-2.603,6-4.56c2.134,0.214,2.577-1.264,3.6-2.16c3.811-1.07,5.91-3.85,9.84-4.8c2.277-1.962,6.134-2.347,8.4-4.32
		c4.703-1.378,8.304-2.398,12.72-4.08c12.748-2.487,27.331-3.749,40.32-1.68c1.06,0.169,1.899,0.984,2.88,1.2
		c0.802,0.176,1.649-0.125,2.399,0c9.125,1.511,18.607,6.203,26.16,9.6c1.084,1.716,4.208,1.392,5.04,3.36
		c4.353,1.808,7.161,5.159,11.04,7.44c2.233,2.407,4.379,4.901,7.44,6.48c5.268,5.292,11.276,9.844,16.56,15.12
		c14.961,11.279,24.977,27.503,31.2,47.52c1.503,7.466,3.114,15.976,3.84,24c0.905,10.013-1.673,18.46-3.84,26.64
		c-1.756,2.245-3.705,4.295-4.32,7.68c-4.275,4.518-1.279,14.132-2.16,22.32c-0.291,2.708-1.444,7.021-2.399,9.6
		c0.503,2.163-1.318,3.268-1.681,4.8c-0.125,0.53-0.203,2.42-0.72,3.601c-0.245,0.56-0.946,0.889-1.2,1.439
		c-0.989,2.15-0.866,5.064-2.88,6.72c-1.83,6.01-5.888,9.792-8.16,15.36c-3.127,3.593-5.551,7.89-8.88,11.28
		c-0.377,1.223-0.489,2.71-1.2,3.6c0.186,1.146-0.375,1.545-0.239,2.64c-3.513,7.928-6.905,15.976-11.521,22.801
		c-1.115,0.815-2.031,2.06-2.88,3.12c-0.863,1.078-1.924,2.22-2.399,3.6c-1.112,0.248-1.963,0.758-2.16,1.92
		c-3.641,2.559-8.108,5.438-12,6.96c-2.3-0.08-4.337,0.988-6.721,1.2c-3.646,0.324-7.602-0.518-11.039,0.479
		c-2,0.581-3.514,2.854-5.521,3.36c-1.012,0.255-3.239,0.261-4.8,0.24c-5.673-0.076-11.501,0.318-16.8,0.24
		c-1.429-0.021-3.361,0.068-4.8-0.24C139.916,274.31,137.831,270.941,134.802,268.878z M164.562,3.918
		c-3.722,0.009-5.591-1.291-8.641-1.68c-1.249-0.16-2.717,0.266-3.84,0c-0.555-0.132-0.873-0.642-1.44-0.72
		c-8.835-1.216-17.267-0.21-26.16,0.48c-1.082,0.679-2.679,0.841-4.56,0.72c-0.23,0.41-0.754,0.526-1.2,0.72
		c-8.299,1.402-16.576,4.63-23.52,8.16c-2.138,0.182-3.208,1.432-4.56,2.4c-0.981-0.101-0.97,0.79-2.16,0.48
		c-2.181,2.62-6.221,3.379-8.4,6c-0.733-0.173-0.875,0.246-1.44,0.24c-0.333,0.147-0.036,0.924-0.48,0.96
		c-3.051,1.589-4.813,4.466-8.16,5.76c-0.597,1.083-1.745,1.615-2.64,2.4c3.223,4.216,8.206,6.674,11.52,10.8
		c2.667,1.813,5.065,3.895,7.2,6.24c2.082,0.158,2.457,1.898,3.6,2.88c0.331,0.284,1.059,0.195,1.44,0.48
		c1.416,1.056,3.35,3.039,5.04,4.56c2.418,2.176,4.201,4.1,5.28,6.24c-3.578,0.419-3.262,5.042-0.72,5.52
		c4.374,0.824,4.754-3.821,6.48-5.76c0.75-0.842,2.03-0.668,2.16-1.68c8.306-3.614,15.179-8.661,24.72-11.04
		c0.396-0.003,0.134-0.666,0.48-0.72c16.566-5.126,33.845-11.425,56.64-9.12c0.1,5.371,9.503,3.266,7.439-2.64
		c-0.548-0.783-1.212,0.043-1.68-0.72c0.134-0.874,0.581-1.434,0.24-2.16C186.527,22.913,175.227,13.733,164.562,3.918z
		 M197.921,31.758c-0.207,1.469,1.783,2.242,2.16,3.84c0.581,2.462-0.98,4.26-1.44,6.48c3.788,0.701,6.807,2.597,10.08,3.6
		c4.205,1.288,7.017,3.479,10.561,4.8c1.534-2.465,4.083-3.917,4.8-7.2c-3.227-2.854-6.697-5.462-9.36-8.88
		c-2.375-0.905-4.08-2.479-5.279-4.56c-1.615,0.015-1.544-1.656-3.12-1.68c-6.747-7.093-14.339-13.341-24.48-17.04
		c-3.824-2.735-9.479-4.92-14.399-5.76C177.829,13.932,187.667,23.054,197.921,31.758z M66.162,31.038
		c-9.946,9.334-18.503,20.057-26.4,31.44c0.356,0.204,0.516,0.604,0.48,1.2c3.629,3.029,7.405,5.737,10.8,8.88
		c0.846,0.783,1.061,2.235,2.64,1.92c3.373,4.228,8.246,6.955,11.76,11.04c3.151,0.769,3.602,4.238,7.68,4.08
		c7.37-8.47,16.548-15.132,26.16-21.36c-0.706-1.374-1.377-2.783-1.92-4.32c0.569-1.511,1.714-2.446,2.16-4.08
		C88.998,49.642,77.508,40.412,66.162,31.038z M188.801,38.718c-5.04-1.421-14.142,1.131-18.479,0.48
		c-5.565,1.642-14.332,2.273-20.88,4.8c-0.756,0.269-0.544,0.022-1.44,0c-14.417,4.463-27.575,10.185-39.6,17.04
		c-1.658,2.982-2.784,6.496-7.68,6.24c-0.56,2.037-1.814,2.304-3.36,3.36c-2.752,1.881-4.911,3.708-7.44,5.52
		c-3.938,2.822-8.288,5.932-11.28,9.12c-1.624,1.73-3.353,2.934-4.56,4.8c-0.764,0.116-1.004,0.756-1.92,0.72
		c0.032,0.591,0.037,1.156-0.24,1.44c-2.464,1.129-3.279,4.045-5.04,6.24c-1.027,1.279-2.729,2.16-3.6,3.6
		c-0.409,0.677-0.269,1.519-0.72,2.16c-0.973,1.382-3.41,3.523-4.08,4.8c-0.124,0.235,0.152,0.747,0,0.96
		c-0.171,0.239-1.021,0.407-1.2,0.72c-0.487,0.852-0.398,2.119-0.96,3.12c-0.209,0.372-0.969,0.597-1.2,0.96
		c-2.384,3.753-4.045,8.688-6.24,12.48c-0.941,1.625-1.232,3.501-2.16,5.28c-0.707,1.354-1.05,2.31-1.68,4.08
		c-0.592,1.664-1.554,3.216-2.16,5.04c-0.821,2.471-1.642,4.139-2.16,6.24c-1.249,5.062-1.874,9.525-3.36,14.16
		c-1.175,5.672-1.389,11.371-2.4,16.8c1.267,1.853,3.966,2.273,3.6,5.76c2.535-2.015,4.623-4.412,7.2-6.479
		c2.01-1.613,4.646-2.358,6.48-4.32c1.916-0.164,2.826-1.334,4.32-1.92c2.133-4.428,5.783-7.338,11.28-8.4
		c6.2-3.408,10.57-7.354,17.76-8.64c0.377-0.183,0.359-0.761,0.96-0.72c1.357,0.232,2.681-0.26,3.84-0.24
		c4.742,0.079,8.223,2.168,12.24,3.12c1.285,1.812,3.13,2.345,4.8,3.6c1.77,1.331,2.434,2.459,4.08,4.08
		c1.869,1.842,4.543,3.724,5.04,6c3.764,2.716,5.023,7.938,8.16,11.28c0.328,1.992,1.35,3.29,2.4,4.56
		c3.527-18.726,8.94-36.166,20.88-47.52c0.48,0,0.96,0,1.44,0c0.397-1.122,1.527-1.513,2.399-2.16
		c7.676-2.747,19.259-1.32,27.12-2.88c1.777,1.023,4.369,1.231,5.76,2.64c4.413,0.246,7.958-1.121,11.761-0.48
		c4.025-1.254,7.872-2.688,11.52-4.32c1.169-1.71,2.864-2.896,4.32-4.32c1.017-2.503,2.782-4.257,4.56-6
		c0.122-0.758,0.707-1.054,0.721-1.92c2.059-1.46,2.97-4.07,5.039-5.52c0.318-2.002,1.416-3.225,1.92-5.04
		c-1.122-1.4-2.255-2.836-1.68-5.52c0.138-0.64,0.981-1.245,1.2-1.44c0.204-0.182-0.172-0.978,0-1.2
		c0.153-0.198,1.146-0.193,1.2-0.24c2.54-2.209,0.829-10.981,0.479-13.68c-0.281-2.177-1.125-3.556-1.439-5.04
		c-0.632-2.979-0.438-5.74-1.44-8.16c-0.111-0.269-0.633-0.444-0.72-0.72c-0.716-2.274-1.077-4.545-1.44-5.76
		c-1.283-4.301-4.016-7.748-5.76-11.52c-0.225-0.486-0.039-1.212-0.24-1.68c-1.215-2.824-3.959-4.398-4.8-7.2
		c-2.359-1.241-5.184-1.525-8.16-2.4c-2.923-0.859-5.206-2.583-8.399-1.68C191.689,41.94,190.906,39.312,188.801,38.718z
		 M220.001,51.438c12.529,10.692,22.386,24.922,27.6,42.72c2.281,7.783,2.885,14.973,3.841,23.76c-1.244,0.27-2.272,1.514-1.92,2.64
		c-2.149,0.945-3.551,3.463-2.641,6.72c2.037,3.321,8.523,4.199,10.08-0.48c0.401-0.904-1.116-1.093-0.479-1.44
		c1.611-0.228,2.555-1.125,4.319-1.2c0.288-11.699-1.119-23.332-4.56-33.84c-5.405-20.196-16.713-34.487-30.48-46.32
		c-0.239,0-0.479,0-0.72,0C223.902,47.018,221.517,48.793,220.001,51.438z M228.641,97.518c2.02,0.621,2.564,2.716,4.561,3.36
		c3.898,5.142,10.032,8.048,13.92,13.2c1.31-0.129,2.388,2.329,2.88,1.44c-1.012-11.136-3.221-24.198-8.4-33.36
		c-4.78-13.139-13.959-21.881-23.04-30.72c-2.284-1.075-4.495-2.224-6.479-3.6c0.054,0.186,0.007,0.473,0.24,0.48
		C221.331,61.097,227.504,78.084,228.641,97.518z M58.482,80.958c-0.346-1.574-2.137-1.704-2.64-3.12
		c-5.969-3.231-9.39-9.01-15.36-12.24c-0.202-0.278-0.317-0.644-0.24-1.2c-0.833,0.192-0.922-0.358-1.68-0.24
		c-1.09,2.192-3.378,4.115-4.56,6.24c-0.369,0.663-0.293,1.547-0.72,2.16c-0.238,0.343-0.952,0.363-1.2,0.72
		c-0.676,0.973-0.912,2.643-1.68,3.6c-0.273,0.341-0.981,0.353-1.2,0.72c-0.366,0.615-0.121,1.462-0.48,2.16
		c-0.317,0.615-1.304,1.046-1.68,1.68c-0.434,0.73-0.286,1.71-0.72,2.4c-0.472,0.75-1.487,1.129-1.92,1.92
		c-1.056,1.928-1.334,3.484-2.16,5.28c-1.143,2.484-3.7,4.952-4.8,7.92c-0.237,0.64,0.056,1.315-0.24,1.92
		c-1.026,2.102-2.723,4.379-3.6,6.48c-0.863,2.069-1.065,4.708-1.92,6.96c-0.495,1.306-1.467,2.356-1.92,3.6
		c-0.177,0.486,0.143,1.21,0,1.68c-0.132,0.435-0.81,0.807-0.96,1.2c-1.382,3.626-1.612,6.396-2.4,10.08
		c-0.403,1.887-1.509,3.741-1.92,5.76c-1.835,9.011-3.045,18.043-3.36,28.8c8.206,7.154,15.863,14.856,24.48,21.6
		c2.324,0.4,4.028-1.088,5.76-0.48c-0.101,0.859-1.395,0.525-1.44,1.44c4.985,4.023,10.559-3.813,5.76-7.2
		c-0.298-0.21-0.929-0.039-1.2-0.479c-0.805-1.313-0.166-1.674,0-3.601c0.479-5.567,1.143-9.594,1.68-14.64
		c2.226-7.214,3.372-15.508,6.48-21.84c0.814-5.186,3.813-8.188,4.8-13.2c1.797-2.762,3.413-5.708,4.56-9.12
		c1.58-2.26,3.426-4.253,4.32-7.2c1.812-1.309,1.902-4.338,4.08-5.28c2.625-5.855,7.646-9.314,10.56-14.88
		C66.557,87.603,62.824,83.976,58.482,80.958z M224.082,102.558c-0.037,2.597-0.366,5.486,1.68,6c0.271-3.01,1.611-4.949,3.36-6.48
		c-0.29-1.018-0.29-2.102,0-3.12c-1.172-0.095-1.102-1.062-1.68-1.2C227.021,100.058,225.806,101.563,224.082,102.558z
		 M236.322,106.398c-0.956-2.337-4.146-4.484-6.48-6.24C230.659,103.431,234.452,104.975,236.322,106.398z M230.561,103.278
		c-1.901-0.225-1.578,1.055-2.399,2.16c-0.089,0.119-0.61-0.104-0.72,0c-1.316,1.243-0.557,3.227-0.48,4.56
		c2.156,0.806,3.731,3.467,5.521,3.84c-0.781-2.863,2.022-4.215,2.88-6.24C233.333,106.838,232.529,103.511,230.561,103.278z
		 M233.921,115.998c2.069,0.971,3.18,2.9,5.04,4.08c-0.007-3.126,1.454-4.786,3.36-6c0.166-1.568-0.409-2.415,0-3.6
		c-2.275-0.765-3.159-2.92-5.28-3.84C236.25,109.822,231.82,111.469,233.921,115.998z M224.322,113.598
		c0.354-0.766,0.389-1.851,1.68-1.68c1.778,2.381,5.164,3.156,6.24,6.24c-0.342,0.459-0.912,0.688-0.96,1.44
		c0.688,1.393,2.535,1.625,2.64,3.6c2.813,1.187,4.462,3.538,6.96,5.04c0.701-0.499,0.954-1.446,1.92-1.68
		c2.013,2.068,4.35,3.811,6,6.24c-0.081,0.639-0.599,0.841-0.72,1.44c2.319,2.881,6.101,4.299,9.12,6.48
		c1.86-4.728,3.26-10.416,3.359-15.36c-0.564-0.005-0.706,0.414-1.439,0.24c-0.626,3.582-4.216,7.547-8.16,6.96
		c-1.793-0.267-2.399-2.169-4.08-2.88c0.216-0.703,0.216-0.737,0-1.44c-1.758-1.442-3.554-2.846-5.04-4.56
		c-4.329-0.115-7.862-2.985-8.399-7.68c-1.739-1.141-3.464-2.296-4.801-3.84c-2.107,0.676-2.197-1.064-3.6-1.68
		C224.589,111.153,223.761,112.708,224.322,113.598z M249.522,117.918c-0.037-2.044-2.449-1.711-2.641-3.6
		c-2.08,0.08-1.941-2.059-3.6-2.4C244.146,115.134,247.042,116.318,249.522,117.918z M225.282,114.558
		c1.944,1.176,3.369,2.871,5.76,3.6c0.075-1.995-2.498-1.342-2.64-3.12c-1.158-0.442-1.974-1.227-2.88-1.92
		C225.246,113.402,225.25,113.966,225.282,114.558z M219.282,119.598c1.927-0.153,1.17-2.99,3.84-2.4
		c3.571,3.548,7.741,6.499,10.8,10.56c2.122,0.039,1.982,2.338,4.08,2.4c2.161,2.878,5.582,4.498,7.68,7.44
		c-1.972,3.428-3.614,6.833-4.56,11.04c-0.14,0.621-0.66,1.003-0.72,1.44c-0.295,2.138-0.283,5.479,0,7.92
		c0.112,0.977,0.728,1.765,0.72,2.64c-0.008,0.87-0.788,1.624-0.72,2.4c0.57,6.563-2.118,12.875-3.36,19.44c-0.24,0-0.479,0-0.72,0
		c-1.074,4.605-3.077,8.282-5.04,12c-0.545,1.535-0.865,3.294-2.4,3.84c0,0.479,0,0.96,0,1.439c-2.689,2.671-3.548,7.172-6.72,9.36
		c0,0.479,0,0.96,0,1.439c-2.944,3.297-5.041,7.439-8.4,10.32c-5.394,8.446-13.698,13.981-19.68,21.84
		c1.288,3.913,4.734,5.926,9.84,4.32c12.243-10.717,22.472-23.449,31.92-36.96c2.136-5.145,5.239-9.321,7.681-14.16
		c0.856-2.983,1.556-6.124,3.359-8.16c1.046-5.165,2.971-9.546,3.601-14.64c0.947-7.671-1.151-14.714,1.199-22.561
		c1.819-2.82,3.407-5.873,5.28-8.64c-12.821-7.578-22.405-18.394-33.84-27.36C222.111,116.507,220.278,117.634,219.282,119.598z
		 M240.402,117.198c-1.496,4.805,2.78,5.995,5.04,8.4c0.139-3.141,1.738-4.821,3.359-6.48c-1.812-1.228-3.479-2.601-4.8-4.32
		C241.762,114.559,242,116.796,240.402,117.198z M214.961,127.998c-2.426,2.214-4.581,4.699-7.2,6.72
		c-1.422,0.578-3.044,0.955-3.84,2.16c2.517-0.643,3.761,0.552,6.72-0.24c0-0.64,0-1.28,0-1.92
		c4.497-4.863,8.132-10.588,12.24-15.84c-0.066-0.493-0.641-0.479-0.96-0.72C219.849,121.686,216.919,124.356,214.961,127.998z
		 M239.202,121.518c-1.606-0.314-1.543-2.297-3.36-2.4C235.727,120.871,238.598,122.069,239.202,121.518z M211.602,135.918
		c3.496,1.178,6.951,0.163,11.279,1.2c2.429,0.969,4.891,3.059,7.44,3.12c4.238,1.761,5.01,6.99,9.6,8.4
		c0.538-4.742,3.111-7.449,4.561-11.28c-7.161-5.639-13.775-11.825-20.641-17.76C219.616,124.893,215.503,130.3,211.602,135.918z
		 M218.082,121.998c0.271-0.77,1.214-0.866,1.2-1.92C218.585,120.273,217.54,121.363,218.082,121.998z M214.961,125.358
		c1.125-0.436,3.062-2.482,2.16-3.36C217.008,123.725,215.115,123.671,214.961,125.358z M203.681,134.958
		c-1.035,0.375-2.328,0.027-3.119,1.2c5.999-0.573,10.414-4.776,13.439-9.12C210.875,129.908,208.104,133.355,203.681,134.958z
		 M242.082,128.958c1.332,1.708,3.378,2.702,5.28,3.84c-0.902-2.378-3.347-3.213-4.801-5.04
		C242.458,128.215,242.044,128.361,242.082,128.958z M181.122,137.358c2.762,3.319,4.937,7.224,6.96,11.28
		c5.186,15.587,6.269,34.175,5.521,51.84c-0.063,1.489-0.63,3.053-0.721,4.56c-0.385,6.399-0.597,11.696-1.68,17.52
		c-2.168,11.665-4.994,22.832-9.36,32.4c-0.371,0.349-0.211,1.229-0.239,1.92c-4.09,6.711-7.518,14.083-15.12,17.28
		c4.734-0.226,7.061-2.859,10.08-4.8c0.122-0.678,0.58-1.02,0.72-1.681c2.836-1.483,3.475-5.165,5.76-7.2
		c0.124-1.901,1.394-3.525,2.16-5.279c1.065-2.438,1.725-4.791,2.64-7.44c0.12-0.346,0.808-0.574,0.96-0.96
		c0.297-0.747,0.391-2.016,0.721-3.12c1.485-4.977,2.846-10.991,4.08-16.08c0.862-3.557,0.925-7.023,1.439-10.8
		c1.105-8.11,2.191-16.994,2.4-25.68c0.046-1.938-0.444-4.132-0.48-6.24c-0.044-2.538,0.103-5.113,0-7.439
		c-0.496-11.265-3.328-27.695-9.359-36.24c-2.433-3.446-5.666-6.228-10.801-6.24C178.21,135.789,179.559,136.68,181.122,137.358z
		 M147.282,274.638c1.226,0.094,2.107-0.358,3.359-0.479c4.819-0.467,10.35,0.112,15.12-0.721c3.147-1.355,5.146-3.382,7.2-5.76
		c0.4-0.463,1.184-0.642,1.44-0.96c0.438-0.545,0.527-1.562,0.96-2.16c0.464-0.642,1.396-0.984,1.68-1.439
		c0.35-0.561,0.141-1.547,0.48-2.16c0.279-0.505,1.149-0.695,1.439-1.2c0.424-0.738,0.492-2.06,0.96-3.12
		c0.632-1.431,1.212-2.413,1.681-4.08c0.226-0.806,1.11-1.347,1.439-2.159c0.809-1.997,1.296-5.031,1.92-7.2
		c0.233-0.812,0.765-1.478,0.96-2.16c1.483-5.191,2.018-9.854,3.601-14.64c2.77-18.372,4.574-36.606,2.159-55.44
		c-0.191-1.494,0.01-3.079-0.239-4.56c-0.306-1.814-1.186-3.511-1.44-5.28c-0.157-1.096,0.276-1.979,0-2.88
		c-0.144-0.469-0.817-0.891-0.96-1.44c-0.257-0.99,0.031-1.955-0.24-2.88c-1.146-3.909-3.265-7.882-5.279-11.04
		c-0.422-0.66-0.119-1.021-0.48-1.44c-3.034-3.517-5.56-6.262-11.28-5.76c-1.451,0.127-6.872,0.573-8.399,0.72
		c-0.342,0.033-0.688-0.517-0.96-0.48c-0.472,0.065-0.979,0.633-1.44,0.72c-3.308,0.625-6.349-0.397-9.12,1.2
		c-14.721,10.579-19.925,29.308-24,50.641c0.032,0.937,1.461,1.726,0.72,2.64c-2.332-0.709-1.556-4.524-3.6-5.521
		c-1.322-3.718-4.064-6.016-5.28-9.84c-3.036-3.844-5.994-7.766-9.36-11.279c-0.917-0.604-2.148-0.893-2.4-2.16
		c-0.745,0.024-0.685-0.756-1.68-0.48c-4.625-4.146-10.562-7.942-19.2-6.72c-5.941,0.841-11.31,5.521-15.6,7.68
		c2.157-0.062,3.864,0.551,6.72,0.72c18.184,7.816,26.914,25.086,35.04,42.96c2.737,8.294,5.773,17.211,6.96,27.12
		c0.106,0.887,0.294,2.019,0.48,2.88c0.081,0.376,0.592,0.3,0.72,0.721c-0.079-0.26,0.005,1.722,0,1.68
		c0.441,3.866,0.422,7.492,0.72,11.521c0.068,0.918,1.117,2.481-0.24,3.119c1.021,1.712,0.628,4.189,0,6.24
		c1.057,1.8,0.824,3.431,0.72,6c-2.619,1.949-1.984,5.885-3.12,9.36c-0.724,2.214-2.129,5.554-3.12,6.96
		c-1.048,1.487-2.06,2.471-2.4,4.08c5.411-3.618,11.357-5.463,15.12-10.32c2.22-2.866,4.093-6.105,5.04-8.88
		c0.425-1.245,1.555-2.214,1.92-3.36c0.229-0.716,0.381-1.646,0.48-2.399c0.68-5.177,2.103-8.883,2.161-13.681
		c0.099-8.399-0.312-17.036-1.44-25.68c-1.001-3.372-1.58-6.5-2.4-9.6c-0.444-1.677-0.525-3.58-0.96-5.28
		c-1.32-5.166-4.986-9.741-4.56-15.12c3.751,9.2,7.26,20.344,9.12,30.96c0.66,3.768,0.757,7.221,1.2,10.8
		c0.21,1.696,0.541,4.801,0.479,5.28c-0.05,0.394-0.522,0.536-0.479,0.96c0.67,6.632-0.963,15.995-2.4,23.28
		c-0.618,0.501-0.879,1.36-0.72,2.64c-0.601,0.439-1.066,1.014-1.44,1.68C138.279,270.441,141.614,274.205,147.282,274.638z
		 M196.482,233.118c6.955-6.005,12.457-13.463,18.72-20.16c0.608-2.752,3.195-3.524,3.6-6.48c1.325-0.435,1.295-2.225,2.641-2.64
		c0.025-1.898,1.798-2.913,2.64-4.32c1.151-1.925,1.855-3.978,2.4-6.239c0.257-1.07,2.076-2.327,2.399-3.36
		c0.61-1.949,0.169-4.977,0-6.96c-0.918-10.816-3.931-22.237-8.16-29.52c-1.063-1.833-1.512-2.755-2.64-4.32
		c-2.981-4.138-6.405-7.183-10.08-9.84c-4.467-2.431-15.09-3.016-22.08-1.44c3.144,2.296,4.455,6.426,6.48,9.84
		c1.647,6.446,4.266,13.898,4.56,21.839c1.164,6.281,1.402,15.383,1.2,19.44c-0.227,4.539-0.031,9.304-0.48,13.92
		c-0.961,9.882-1.896,20.774-4.079,30C194.322,233.197,195.438,233.122,196.482,233.118z M226.961,194.718
		c-2.162,7.519-7.546,11.814-10.56,18.48c-2.202,2.118-4.541,4.1-5.761,7.2c-5.507,4.332-8.988,10.69-14.88,14.64
		c-0.423,1.571-3.075,3.222-2.159,4.56c0.153-1.687,1.736-1.943,2.159-3.359c8.549-6.571,14.653-15.588,21.841-23.521
		c0.04-0.919,0.281-1.639,1.199-1.68c0.532-2.668,2.85-3.551,3.36-6.24c3.477-3.644,5.588-8.651,7.68-13.68
		c2.787-3.004,3.301-8.341,5.28-11.521c-0.313-1.433,0.451-1.788,0.72-2.64c-0.358-1.747,0.883-3.239,1.2-4.8
		c1.644-8.076,0.839-16.057-1.2-22.56c-0.912-1.408-2.164-2.476-2.399-4.56c-5.13-6.006-16.42-9.32-25.44-7.2
		c2.911,2.689,6.446,4.754,8.88,7.92c3.651-0.622,8.509-0.497,12.24,0c-0.331-0.942-2.168-1.413-1.68-2.4
		C243.322,152.515,235.383,182.611,226.961,194.718z M217.602,146.958c7.771,9.41,11.393,24.486,12.479,39.12
		c1.348-2.062,2.646-4.838,3.36-7.44c1.059-3.862,1.847-8.063,1.68-12c0.205-0.435,0.618-0.661,0.72-1.199
		c-0.058-7.422-1.272-13.106-4.8-18.24C227.407,146.363,221.337,145.484,217.602,146.958z M235.362,180.798
		c-2.645,9.141-7.391,15.827-10.801,23.28c-0.831,0.128-0.798,1.121-1.68,1.2c-1.797,5.242-5.957,8.123-8.16,12.96
		c-3.697,2.942-6.271,7.008-9.359,10.56c-2.327,1.434-3.26,4.261-6,5.28c-0.918,2.443-4.685,3.313-4.561,6
		c5.04-6.24,12.024-10.535,16.08-17.76c3.011-1.55,3.951-5.17,6.721-6.96c-0.275-0.995,0.504-0.936,0.479-1.681
		c0.499-0.141,0.775-0.504,1.2-0.72c4.48-8.079,10.309-14.812,13.439-24.24c0.331,0.011,0.527-0.112,0.721-0.239
		c0.312-2.568,1.56-4.2,2.399-6.24c0-0.48,0-0.96,0-1.44c3.576-7.982,4.873-19.859,3.36-29.28c-0.204-0.905,0.797-1.126,0.24-1.68
		c-1.078-0.922-2.602-1.399-3.601-2.4C240.989,158.239,238.26,170.78,235.362,180.798z M102.642,188.238
		c-2.127-4.513-5.752-7.528-8.16-11.76c-0.428-0.373-0.94-0.66-1.44-0.961c-2.572-3.667-6.508-5.971-9.84-8.88
		c-5.328-1.972-11.125-3.815-17.28-1.92c-2.765,1.636-6.628,3.451-7.44,6.24c1.368-0.632,2.732-1.268,3.84-2.16
		c18.422-4.297,26.792,10.926,34.8,20.4c2.256,5.184,5.682,9.198,7.44,14.88c2.918,4.266,4.127,11.288,6.48,16.8
		c2.109,10.418,5.298,21.628,4.32,32.64c0.419,0.222,0.529,0.751,0.48,1.44c1.964,1.075,3.006,3.074,5.04,4.08
		c1.201-5.916-0.087-11.379-0.72-17.76c-0.146-1.469,0.209-3.183,0-4.801c-0.427-3.309-1.849-6.404-2.4-9.6
		c-0.191-1.111-0.016-2.254-0.24-3.36c-0.937-4.615-3.343-8.836-4.32-13.199c-0.594-2.653-1.404-4.923-2.4-6.96
		c-2.109-4.317-4.123-8.76-6.72-12.48c0-0.72,0-1.439,0-2.16C103.11,189.05,103.323,188.197,102.642,188.238z M4.482,181.998
		c8.874,6.166,16.141,13.938,24.24,20.88c3.368-1.674,5.308-5.51,7.44-8.399c0.692-0.938,1.126-0.584,1.2-1.44
		c0.088-1.028-0.849-1.97-1.2-2.88c-2.265,1.714-7.145,1.094-6.96-2.4c-2.458,0.279-3.007,0.598-5.28-0.24
		c-0.794-1.845-3.155-2.124-3.84-4.079c-2.703-0.977-3.801-3.559-6.48-4.561c-3.539-4.46-8.077-7.923-12.48-11.52
		C2.323,172.305,2.493,177.815,4.482,181.998z M111.042,226.638c-1.885-9.257-4.8-18.009-9.12-25.68
		c-0.064-2.656-2.456-2.984-2.4-5.76c-0.913-1.008-2.039-1.802-2.16-3.601c-2.803-3.828-5.52-7.874-9.12-11.76
		c-4.143-4.471-9.228-8.778-14.4-10.32c-6.149-1.832-13.079,0.431-17.52,4.08c-0.4,0-0.8,0-1.2,0c-1.015,0.514-1.713,1.937-3.12,2.4
		c-1.872,0.617-1.942,1.24-3.6,2.16c-0.656,0.364-1.608,0.333-2.16,0.72c-0.926,0.649-2.272,3.004-3.84,4.08
		c-2.343,1.608-4.92,3.506-4.32,7.68c0.722-0.241,0.425,0.535,0.48,0.96c4.076,2.645,6.618,6.822,11.04,9.12
		c4.186,4.215,8.984,7.816,13.68,11.521c0.319,1.121,1.201,1.679,2.4,1.92c1.96,2.52,4.985,3.976,6.96,6.479
		c1.612,0.068,2.29,1.07,2.88,2.16c0.4,0,0.8,0,1.2,0c3.229,4.611,8.863,6.816,12.24,11.28c2.147,0.972,4.005,2.234,5.28,4.08
		c3.201,1.438,4.974,4.306,8.16,5.76c0,0.24,0,0.48,0,0.72c4.277,2.843,8.092,6.147,12,9.36
		C115.273,244.596,112.771,235.129,111.042,226.638z M29.682,204.078c3.795,3.405,8.405,5.994,11.52,10.08
		c1.229,0.05,1.804,0.756,2.16,1.68c0.759-0.039,0.802,0.638,1.68,0.48c2.864,3.797,6.943,5.787,10.56,8.88
		c2.192,1.874,3.407,4.638,6,5.279c0,0.24,0,0.48,0,0.721c4.145,1.775,6.117,5.723,10.32,7.439c0.491,1.402,1.971,1.7,3.12,2.641
		c0.479,0.392,1.364,1.895,1.68,2.159c0.344,0.288,1.059,0.207,1.44,0.48c2.358,1.693,4.436,4.247,6.48,6
		c0.188,0.161,0.759-0.146,0.96,0c0.504,0.367,0.671,1.283,1.2,1.68c0.505,0.379,1.397,0.324,1.92,0.721
		c0.821,0.621,1.743,1.645,2.64,2.399c0.971,0.818,2.058,1.45,2.88,2.16c0.115,0.099-0.119,0.628,0,0.72
		c0.202,0.157,0.735-0.129,0.96,0c0.737,0.424,2.214,1.718,2.64,2.16c0.108,0.112-0.121,0.625,0,0.72
		c0.443,0.349,1.507,0.416,2.16,0.96c0.399,0.333,0.546,1.142,0.96,1.44c0.733,0.529,1.87,0.582,2.64,1.2
		c0.508,0.407,0.638,1.231,1.2,1.68c0.854,0.682,2.23,1.32,3.36,2.16c2.186,1.625,3.406,2.764,6.24,3.12
		c2.151-1.12,4.321-1.805,5.76-3.601c0.472-0.589,0.001-1.728,1.2-1.68c-0.224-1.744,0.829-2.211,0.48-4.08
		c-3.123-3.598-7.832-5.607-10.8-9.359c-4.061-1.86-6.329-5.511-10.32-7.44c-0.41-0.23-0.526-0.754-0.72-1.2
		c-2.133-0.427-2.354-2.765-4.56-3.12c0.347-0.907-0.66-0.46-0.48-1.199c-3.218-1.103-4.646-3.994-7.68-5.28
		c-0.244-1.196-1.248-1.633-2.4-1.92c-3.196-2.805-5.885-6.115-9.84-8.16c-1.942-2.377-4.41-4.23-7.2-5.76
		c-0.067-0.623-0.725-1.348-1.2-1.681c-2.014-1.411-4.16-3.168-5.76-4.8c-0.499-0.509-1.167-0.382-1.68-0.72
		c-1.69-1.114-2.608-3.61-4.8-4.08c0.037-0.597-0.377-0.743-0.48-1.2c-5.87-3.41-9.969-8.591-15.84-12
		C36.086,198.003,32.6,200.756,29.682,204.078z M105.521,286.158c3.654-3.387,5.706-8.374,6.96-14.16
		c-1.269-0.411-1.717-1.643-3.36-1.68c-0.128-0.832-1.122-0.799-1.2-1.681c-9.373-6.227-18.011-13.188-26.16-20.64
		c-1.094,0.294-0.942-0.658-1.92-0.48c-1.235-1.725-2.729-3.19-4.8-4.08c-1.249-2.409-3.99-3.193-6-4.8
		c-1.495-1.194-2.584-2.894-4.08-4.08c-0.381-0.302-1.079-0.207-1.44-0.479c-5.202-3.916-9.756-8.797-14.64-12.96
		c-0.32,0-0.64,0-0.96,0c-2.1-3.066-5.624-4.785-8.4-7.2c-1.719-1.495-3.325-3.093-5.04-4.32c-1.451-1.037-2.559-2.64-4.08-3.6
		c-1.039,4.519-1.915,10.604-2.16,15.36c-0.125,2.422,0.33,4.845,0.48,7.199c0.018,0.276-0.474,0.726-0.48,0.96
		c-0.056,2.124,0.698,4.127,0.96,6.24c0.563,4.541,0.263,9.134,2.4,13.2c-0.268,4.81,2.763,6.94,2.88,12
		c2.262,1.897,2.212,6.107,4.56,7.92c0.041,2.68,2.471,2.969,2.4,5.76c2.078,2.236,3.762,4.991,6,7.681
		c2.317,2.784,4.668,6.288,7.68,8.64c0.441,0.344,1.278,0.354,1.68,0.72c0.233,0.212,0.196,0.991,0.48,1.2
		c0.524,0.386,1.384,0.13,1.92,0.479c0.269,0.176,0.2,0.745,0.48,0.961c1.064,0.818,4.774,2.747,5.76,3.119
		c7.191,2.72,14.942,2.584,21.84,0c2.708-1.715,4.365-3.27,6.24-5.76c1.295-1.72,2.321-2.697,3.6-4.08
		c2.267-2.449,6.142-6.495,9.6-4.56C107.007,284.763,105.82,285.016,105.521,286.158z M217.602,234.558c0,0.32,0,0.641,0,0.96
		c-1.513,0.493-1.747,1.695-2.641,2.641c-1.049,1.109-2.706,1.938-3.84,3.12c-1.128,1.175-1.965,2.575-2.88,3.6
		c-2.225,2.489-6.012,4.456-10.32,3.6c-0.769-0.351-1.064-1.175-2.399-0.96c-0.665-1.735-1.766-3.035-2.641-4.56
		c-0.202-1.077-0.101-2.459-1.439-2.4c-3.074,11.646-7.499,21.941-14.4,29.761c0.561,0,1.12,0,1.68,0
		c2.348-3.094,6.179-4.702,7.681-8.641c3.146-1.493,5.512-3.769,10.8-3.12c0.403,0.797,1.776,0.624,2.16,1.44
		c0.258,0.974-0.109,1.504,0,2.88c-0.622,0.258-0.893,0.868-1.681,0.96c0.001,2.083-3,2.437-2.64,4.08
		c15.612-7.34,23.421-23.52,29.04-40.08c-0.053-0.187-0.201-0.279-0.48-0.24C222.112,230.429,220.223,232.859,217.602,234.558z
		 M188.082,262.158c2.554,0.473,7.737-0.402,6.72-2.641C194.163,262.146,189.486,259.954,188.082,262.158z M189.282,266.958
		c-3.022,0.212-6.122-0.167-7.44,2.16c9.009,0.6,12.328-3.652,15.84-8.16c0.014-0.413-0.185-0.615-0.479-0.72
		C194.816,262.732,192.704,265.5,189.282,266.958z M196.482,264.558c0.084-1.355,1.592-1.287,1.68-2.64
		C197.703,262.725,195.546,263.899,196.482,264.558z M193.362,262.878c-0.422,0.138-1.41-0.29-1.44,0.24
		C192.229,263.448,193.357,263.536,193.362,262.878z M185.202,265.758c1.827,0.062,5.473,0.094,6-1.92
		C189.035,264.312,186.479,264.396,185.202,265.758z M113.202,283.998c3.563-3.316,4.782-8.979,6.48-14.16
		c-1.552,0.211-3.603,1.995-6,2.16c-1.99,9.29-6.505,16.055-13.92,19.92c6.87,0.23,9.807-3.473,13.44-6.48
		C113.202,284.958,113.202,284.478,113.202,283.998z M96.642,289.278c-0.339,1.007-1.819,1.93-1.68,2.64
		c3.691-1.029,7.307-4.213,9.12-7.92C100.188,284.345,100.128,288.524,96.642,289.278z"/>
	<path fill-rule="evenodd" clip-rule="evenodd" fill="#DCDDDE" d="M227.442,97.758c0.578,0.138,0.508,1.105,1.68,1.2
		c-0.29,1.018-0.29,2.102,0,3.12c-1.749,1.531-3.09,3.47-3.36,6.48c-2.046-0.514-1.717-3.403-1.68-6
		C225.806,101.563,227.021,100.058,227.442,97.758z"/>
	<path fill-rule="evenodd" clip-rule="evenodd" fill="#DCDDDE" d="M176.801,134.958c5.135,0.013,8.368,2.794,10.801,6.24
		c6.031,8.545,8.863,24.976,9.359,36.24c0.103,2.326-0.044,4.901,0,7.439c0.036,2.108,0.526,4.302,0.48,6.24
		c-0.209,8.686-1.295,17.569-2.4,25.68c-0.515,3.776-0.577,7.243-1.439,10.8c-1.234,5.089-2.595,11.104-4.08,16.08
		c-0.33,1.104-0.424,2.373-0.721,3.12c-0.152,0.386-0.84,0.614-0.96,0.96c-0.915,2.649-1.574,5.002-2.64,7.44
		c-0.767,1.754-2.036,3.378-2.16,5.279c-2.285,2.035-2.924,5.717-5.76,7.2c-0.14,0.661-0.598,1.003-0.72,1.681
		c-3.02,1.94-5.346,4.574-10.08,4.8c7.603-3.197,11.03-10.569,15.12-17.28c0.028-0.691-0.132-1.571,0.239-1.92
		c4.366-9.568,7.192-20.735,9.36-32.4c1.083-5.823,1.295-11.12,1.68-17.52c0.091-1.507,0.657-3.07,0.721-4.56
		c0.748-17.665-0.335-36.253-5.521-51.84c-2.023-4.057-4.198-7.961-6.96-11.28C179.559,136.68,178.21,135.789,176.801,134.958z"/>
	<path fill-rule="evenodd" clip-rule="evenodd" fill="#5F6062" d="M135.042,267.438c0.374-0.666,0.839-1.24,1.44-1.68
		c-0.159-1.279,0.102-2.139,0.72-2.64c1.438-7.285,3.07-16.648,2.4-23.28c-0.043-0.424,0.43-0.566,0.479-0.96
		c0.062-0.479-0.27-3.584-0.479-5.28c-0.443-3.579-0.54-7.032-1.2-10.8c-1.86-10.616-5.369-21.76-9.12-30.96
		c-0.426,5.379,3.24,9.954,4.56,15.12c0.435,1.7,0.516,3.604,0.96,5.28c0.82,3.1,1.399,6.228,2.4,9.6
		c1.129,8.644,1.539,17.28,1.44,25.68c-0.058,4.798-1.48,8.504-2.161,13.681c-0.099,0.754-0.251,1.684-0.48,2.399
		c-0.365,1.146-1.495,2.115-1.92,3.36c-0.947,2.774-2.82,6.014-5.04,8.88c-3.762,4.857-9.708,6.702-15.12,10.32
		c0.34-1.609,1.352-2.593,2.4-4.08c0.991-1.406,2.396-4.746,3.12-6.96c1.136-3.476,0.5-7.411,3.12-9.36
		c0.104-2.569,0.337-4.2-0.72-6c0.628-2.051,1.021-4.528,0-6.24c1.357-0.638,0.308-2.201,0.24-3.119
		c-0.297-4.028-0.278-7.654-0.72-11.521c0.005,0.042-0.079-1.939,0-1.68c-0.128-0.421-0.639-0.345-0.72-0.721
		c-0.186-0.861-0.374-1.993-0.48-2.88c-1.187-9.909-4.223-18.826-6.96-27.12c-8.126-17.874-16.856-35.144-35.04-42.96
		c-2.856-0.169-4.562-0.782-6.72-0.72c4.29-2.159,9.659-6.839,15.6-7.68c8.639-1.223,14.575,2.574,19.2,6.72
		c0.995-0.275,0.935,0.505,1.68,0.48c0.251,1.268,1.483,1.557,2.4,2.16c3.366,3.514,6.324,7.436,9.36,11.279
		c1.215,3.824,3.958,6.122,5.28,9.84c2.044,0.996,1.269,4.812,3.6,5.521c0.742-0.914-0.688-1.703-0.72-2.64
		c4.074-21.333,9.279-40.062,24-50.641c2.771-1.597,5.812-0.574,9.12-1.2c0.462-0.087,0.969-0.655,1.44-0.72
		c0.271-0.037,0.618,0.513,0.96,0.48c1.527-0.146,6.948-0.592,8.399-0.72c5.721-0.502,8.246,2.243,11.28,5.76
		c0.361,0.419,0.059,0.78,0.48,1.44c2.015,3.158,4.134,7.131,5.279,11.04c0.271,0.925-0.017,1.89,0.24,2.88
		c0.143,0.55,0.816,0.972,0.96,1.44c0.276,0.9-0.157,1.784,0,2.88c0.255,1.77,1.135,3.466,1.44,5.28
		c0.249,1.48,0.048,3.065,0.239,4.56c2.415,18.834,0.61,37.068-2.159,55.44c-1.583,4.785-2.117,9.448-3.601,14.64
		c-0.195,0.683-0.727,1.348-0.96,2.16c-0.624,2.169-1.111,5.203-1.92,7.2c-0.329,0.812-1.214,1.354-1.439,2.159
		c-0.469,1.667-1.049,2.649-1.681,4.08c-0.468,1.061-0.536,2.382-0.96,3.12c-0.29,0.505-1.16,0.695-1.439,1.2
		c-0.34,0.613-0.131,1.6-0.48,2.16c-0.284,0.455-1.216,0.798-1.68,1.439c-0.433,0.599-0.521,1.615-0.96,2.16
		c-0.257,0.318-1.04,0.497-1.44,0.96c-2.055,2.378-4.053,4.404-7.2,5.76c-4.771,0.833-10.301,0.254-15.12,0.721
		c-1.252,0.121-2.134,0.573-3.359,0.479C141.614,274.205,138.279,270.441,135.042,267.438z M157.362,164.238
		c-3.8,1.96-5.158,6.362-7.92,9.359c-0.618,3.223-1.897,5.783-3.12,8.4c-0.488,3.866-2.64,7.775-3.36,12.24
		c-2.182,13.513-3.859,28.242-2.16,42.479c0.223,1.859,0.394,4.569,2.16,5.76c-3.567-15.709-1.38-33.244,1.2-49.68
		c0.881-0.959,1.276-2.403,1.2-4.319c1.547-3.433,2.979-7.934,4.32-12.24c2.683-3.562,4.187-9.566,8.399-10.8
		c0.545,1.614,0.825,3.495,1.44,5.04c-9.916,19.99-14.09,46.389-9.601,71.52c-1.419,1.46-2.31,3.45-3.359,5.28
		c2.1-0.449,3.314-3.012,4.319-4.801c1.282-2.281,1.985-4.928,3.36-6.96c3.003-9.312,5.344-18.985,6.72-28.8
		c0.413-2.943-0.103-6.142,0.24-9.12c1.37-11.902,0.947-24.692-3.12-34.8c-0.24,0-0.479,0-0.72,0
		C156.892,163.246,157.288,163.677,157.362,164.238z"/>
	<path fill-rule="evenodd" clip-rule="evenodd" d="M157.362,162.798c0.24,0,0.479,0,0.72,0c4.067,10.107,4.49,22.897,3.12,34.8
		c-0.343,2.979,0.173,6.177-0.24,9.12c-1.376,9.814-3.717,19.487-6.72,28.8c-1.375,2.032-2.078,4.679-3.36,6.96
		c-1.005,1.789-2.22,4.352-4.319,4.801c1.05-1.83,1.94-3.82,3.359-5.28c-4.489-25.131-0.315-51.529,9.601-71.52
		c-0.615-1.545-0.896-3.426-1.44-5.04c-4.213,1.233-5.717,7.238-8.399,10.8c-1.342,4.307-2.773,8.808-4.32,12.24
		c0.076,1.916-0.319,3.36-1.2,4.319c-2.58,16.436-4.768,33.971-1.2,49.68c-1.767-1.19-1.938-3.9-2.16-5.76
		c-1.699-14.237-0.021-28.967,2.16-42.479c0.721-4.465,2.872-8.374,3.36-12.24c1.223-2.617,2.502-5.178,3.12-8.4
		c2.762-2.997,4.12-7.399,7.92-9.359C157.288,163.677,156.892,163.246,157.362,162.798z M154.242,185.598c0,0.721,0,1.44,0,2.16
		c-1.876,5.517-3.367,11.577-4.08,17.521c-0.852,7.102-1.507,15.743-0.96,23.76c0.18,2.643,0.235,5.757,0.72,8.399
		c0.086,0.469,0.367,1.874,1.2,2.16c0.938-2.581,2.03-5.01,3.12-7.439c-1.334-7.613-0.653-16.959,0-25.44
		c0.278-3.607,1.161-7.556,1.68-11.279c0.405-2.909,1.256-6.142,1.92-7.921c0.559-1.492,0.521-3.175,0.96-4.8
		c0.85-3.139,2.683-6.378,0.96-9.84c-0.014-0.146-0.035-0.284-0.239-0.24C157.399,176.596,156.312,181.588,154.242,185.598z
		 M154.961,229.038c4.383-13.682,6.299-29.065,5.76-47.04c-0.014-0.146-0.035-0.284-0.239-0.24
		C156.178,195.689,153.89,211.273,154.961,229.038z"/>
	<path fill-rule="evenodd" clip-rule="evenodd" d="M193.602,232.878c2.184-9.226,3.118-20.118,4.079-30
		c0.449-4.616,0.254-9.381,0.48-13.92c0.202-4.058-0.036-13.159-1.2-19.44c-0.294-7.941-2.912-15.394-4.56-21.839
		c-2.025-3.415-3.337-7.544-6.48-9.84c6.99-1.575,17.613-0.99,22.08,1.44c3.675,2.657,7.099,5.702,10.08,9.84
		c1.128,1.565,1.576,2.487,2.64,4.32c4.229,7.282,7.242,18.703,8.16,29.52c0.169,1.983,0.61,5.011,0,6.96
		c-0.323,1.033-2.143,2.29-2.399,3.36c-0.545,2.262-1.249,4.314-2.4,6.239c-0.842,1.407-2.614,2.422-2.64,4.32
		c-1.346,0.415-1.315,2.205-2.641,2.64c-0.404,2.956-2.991,3.729-3.6,6.48c-6.263,6.697-11.765,14.155-18.72,20.16
		C195.438,233.122,194.322,233.197,193.602,232.878z"/>
	<path fill-rule="evenodd" clip-rule="evenodd" fill="#DCDDDE" d="M223.122,114.558c11.435,8.966,21.019,19.782,33.84,27.36
		c-1.873,2.767-3.461,5.819-5.28,8.64c-2.351,7.847-0.252,14.89-1.199,22.561c-0.63,5.094-2.555,9.475-3.601,14.64
		c-1.804,2.036-2.503,5.177-3.359,8.16c-2.441,4.839-5.545,9.016-7.681,14.16c-9.448,13.511-19.677,26.243-31.92,36.96
		c-5.105,1.605-8.552-0.407-9.84-4.32c5.981-7.858,14.286-13.394,19.68-21.84c3.359-2.881,5.456-7.023,8.4-10.32
		c0-0.479,0-0.96,0-1.439c3.172-2.188,4.03-6.689,6.72-9.36c0-0.479,0-0.96,0-1.439c1.535-0.546,1.855-2.305,2.4-3.84
		c1.963-3.718,3.966-7.395,5.04-12c0.24,0,0.479,0,0.72,0c1.242-6.565,3.931-12.877,3.36-19.44c-0.068-0.776,0.712-1.53,0.72-2.4
		c0.008-0.875-0.607-1.663-0.72-2.64c-0.283-2.441-0.295-5.782,0-7.92c0.06-0.437,0.58-0.819,0.72-1.44
		c0.945-4.208,2.588-7.612,4.56-11.04c-2.098-2.942-5.519-4.562-7.68-7.44c-2.098-0.062-1.958-2.361-4.08-2.4
		c-3.059-4.062-7.229-7.012-10.8-10.56c-2.67-0.59-1.913,2.247-3.84,2.4C220.278,117.634,222.111,116.507,223.122,114.558z"/>
	<path fill-rule="evenodd" clip-rule="evenodd" fill="#DCDDDE" d="M38.082,193.758c5.871,3.409,9.971,8.59,15.84,12
		c0.103,0.457,0.517,0.604,0.48,1.2c2.192,0.47,3.11,2.966,4.8,4.08c0.514,0.338,1.181,0.211,1.68,0.72
		c1.6,1.632,3.746,3.389,5.76,4.8c0.475,0.333,1.133,1.058,1.2,1.681c2.79,1.529,5.257,3.383,7.2,5.76
		c3.955,2.045,6.644,5.355,9.84,8.16c1.152,0.287,2.156,0.724,2.4,1.92c3.034,1.286,4.462,4.178,7.68,5.28
		c-0.18,0.739,0.827,0.292,0.48,1.199c2.205,0.355,2.427,2.693,4.56,3.12c0.194,0.446,0.311,0.97,0.72,1.2
		c3.991,1.93,6.259,5.58,10.32,7.44c2.968,3.752,7.678,5.762,10.8,9.359c0.349,1.869-0.704,2.336-0.48,4.08
		c-1.199-0.048-0.728,1.091-1.2,1.68c-1.438,1.796-3.609,2.48-5.76,3.601c-2.834-0.356-4.055-1.495-6.24-3.12
		c-1.129-0.84-2.506-1.479-3.36-2.16c-0.562-0.448-0.692-1.272-1.2-1.68c-0.77-0.618-1.907-0.671-2.64-1.2
		c-0.414-0.299-0.561-1.107-0.96-1.44c-0.653-0.544-1.716-0.611-2.16-0.96c-0.121-0.095,0.108-0.607,0-0.72
		c-0.426-0.442-1.903-1.736-2.64-2.16c-0.225-0.129-0.758,0.157-0.96,0c-0.119-0.092,0.115-0.621,0-0.72
		c-0.822-0.71-1.909-1.342-2.88-2.16c-0.897-0.755-1.819-1.778-2.64-2.399c-0.522-0.396-1.415-0.342-1.92-0.721
		c-0.529-0.396-0.696-1.312-1.2-1.68c-0.201-0.146-0.772,0.161-0.96,0c-2.044-1.753-4.122-4.307-6.48-6
		c-0.381-0.273-1.096-0.192-1.44-0.48c-0.316-0.265-1.201-1.768-1.68-2.159c-1.148-0.94-2.628-1.238-3.12-2.641
		c-4.204-1.717-6.176-5.664-10.32-7.439c0-0.24,0-0.48,0-0.721c-2.593-0.642-3.808-3.405-6-5.279
		c-3.617-3.093-7.696-5.083-10.56-8.88c-0.877,0.157-0.92-0.52-1.68-0.48c-0.356-0.924-0.931-1.63-2.16-1.68
		c-3.115-4.086-7.725-6.675-11.52-10.08C32.6,200.756,36.086,198.003,38.082,193.758z"/>
</g>
</svg>
